<svg width="32" height="32" viewBox="0 0 32 32" fill="none" xmlns="http://www.w3.org/2000/svg">
<g clip-path="url(#clip0_27_16)">
<path d="M29.9106 13.0041C29.9241 10.322 29.6923 7.63885 29.2135 5.00032C29.0011 3.83056 28.8325 2.55671 27.9957 1.71225C27.7575 1.47208 27.4816 1.3099 27.1794 1.33788C26.0654 1.44103 24.8741 1.7485 24.0249 1.98263C23.0373 2.25495 21.9056 2.81106 20.8004 3.34016C20.3242 3.56816 19.7828 3.61659 19.2717 3.48429L11.2297 1.40315C9.83138 1.07634 7.6814 1.61829 6.36009 1.98263C5.53477 2.21021 4.60876 2.63597 3.68174 3.07853C3.34821 3.23778 3.06487 3.64765 2.84985 4.06439C2.47872 4.78372 2.3261 5.58948 2.18399 6.38633L2.07074 7.02137C1.14011 12.2399 1.14011 17.5819 2.07074 22.8005C2.28807 24.0192 2.43004 25.386 3.35648 26.2071C3.58007 26.4052 3.83401 26.5234 4.10862 26.4711C4.94997 26.3106 5.81228 25.9655 6.73207 25.6512C8.08309 25.1895 9.43385 24.6672 10.6844 24.3243C11.0409 24.2267 11.4166 24.2338 11.7745 24.3264L14.4289 25.0135" stroke="#404040" stroke-width="2" stroke-linecap="round" stroke-linejoin="round"/>
<path d="M11.5741 24.3101C11.4111 24.2692 11.2446 24.2473 11.0781 24.2461V1.69372C11.0781 1.59733 11.0839 1.5019 11.0952 1.4079L19.4931 3.50907C19.7303 3.56843 19.9738 3.5866 20.2135 3.56358V12.4325" stroke="#404040" stroke-width="2" stroke-linecap="round" stroke-linejoin="round"/>
<path d="M30.6279 22.243C30.6279 26.7741 25.3824 30.6976 24.8174 30.6976C24.2523 30.6976 19.0067 26.7741 19.0067 22.243C19.0067 19.0339 21.6082 16.4324 24.8174 16.4324C28.0263 16.4324 30.6279 19.0339 30.6279 22.243Z" stroke="#404040" stroke-width="2" stroke-linecap="round" stroke-linejoin="round"/>
<path d="M24.8169 22.3584V22.0122" stroke="#404040" stroke-width="2" stroke-linecap="round" stroke-linejoin="round"/>
</g>
<defs>
<clipPath id="clip0_27_16">
<rect width="32" height="32" fill="white"/>
</clipPath>
</defs>
</svg>
