<svg width="32" height="32" viewBox="0 0 32 32" fill="none" xmlns="http://www.w3.org/2000/svg">
<path d="M18.4427 22.0907C18.718 22.2171 19.0283 22.246 19.3223 22.1726C19.6162 22.0991 19.8764 21.9278 20.06 21.6867L20.5333 21.0667C20.7817 20.7355 21.1038 20.4667 21.4741 20.2815C21.8444 20.0964 22.2527 20 22.6667 20H26.6667C27.3739 20 28.0522 20.2809 28.5523 20.781C29.0524 21.2811 29.3333 21.9594 29.3333 22.6667V26.6667C29.3333 27.3739 29.0524 28.0522 28.5523 28.5523C28.0522 29.0524 27.3739 29.3333 26.6667 29.3333C20.3015 29.3333 14.197 26.8048 9.6961 22.3039C5.19523 17.803 2.66667 11.6985 2.66667 5.33332C2.66667 4.62608 2.94762 3.9478 3.44771 3.4477C3.94781 2.94761 4.62609 2.66666 5.33333 2.66666H9.33333C10.0406 2.66666 10.7189 2.94761 11.2189 3.4477C11.719 3.9478 12 4.62608 12 5.33332V9.33332C12 9.74731 11.9036 10.1556 11.7185 10.5259C11.5333 10.8962 11.2645 11.2183 10.9333 11.4667L10.3093 11.9347C10.0646 12.1216 9.89203 12.3874 9.82105 12.6871C9.75008 12.9868 9.78504 13.3018 9.92 13.5787C11.7422 17.2798 14.7392 20.2731 18.4427 22.0907Z" stroke="#404040" stroke-width="2" stroke-linecap="round" stroke-linejoin="round"/>
</svg>
