<svg width="1251" height="252" viewBox="0 0 1251 252" fill="none" xmlns="http://www.w3.org/2000/svg">
<path d="M93.5257 -2.5043e-05C114.377 -2.5043e-05 129.812 5.51953 139.829 16.5586C150.05 27.5977 155.161 41.9077 155.161 59.4885C155.161 77.0693 149.948 91.4814 139.522 102.725C129.301 113.764 113.56 119.284 92.2991 119.284H25.7579V203.917H-4.41549e-05V-2.5043e-05H93.5257ZM87.0862 98.7386C114.684 98.7386 128.483 85.6552 128.483 59.4885C128.483 46.8139 125.212 37.2058 118.67 30.6642C112.333 23.918 102.112 20.545 88.0061 20.545H25.7579V98.7386H87.0862ZM274.26 48.4494V72.6741H267.82C246.764 72.0608 232.25 78.2958 224.277 91.3792C216.509 104.463 212.625 123.168 212.625 147.495V203.917H188.094V50.5959H212.625V91.9925C222.437 62.9637 241.143 48.4494 268.74 48.4494H274.26ZM365.804 208.823C349.041 208.823 334.834 205.348 323.181 198.397C311.733 191.242 303.045 181.532 297.117 169.266C291.393 156.796 288.531 142.691 288.531 126.95C288.531 111.413 291.393 97.5121 297.117 85.2464C303.045 72.9807 311.733 63.3726 323.181 56.4221C334.834 49.2671 349.041 45.6896 365.804 45.6896C382.363 45.6896 396.366 49.2671 407.814 56.4221C419.467 63.3726 428.155 72.9807 433.879 85.2464C439.807 97.5121 442.771 111.413 442.771 126.95C442.771 142.691 439.807 156.694 433.879 168.96C428.155 181.225 419.467 190.936 407.814 198.091C396.366 205.246 382.363 208.823 365.804 208.823ZM313.369 127.256C313.369 148.517 317.662 164.156 326.248 174.172C335.038 183.985 348.224 188.891 365.804 188.891C383.385 188.891 396.469 183.985 405.055 174.172C413.641 164.156 417.934 148.517 417.934 127.256C417.934 105.996 413.641 90.4593 405.055 80.6468C396.469 70.6298 383.385 65.6213 365.804 65.6213C348.224 65.6213 335.038 70.6298 326.248 80.6468C317.662 90.4593 313.369 105.996 313.369 127.256ZM558.342 45.6896C581.442 45.6896 598.921 53.1512 610.778 68.0744C622.634 82.9977 628.563 102.725 628.563 127.256C628.563 151.992 622.634 171.822 610.778 186.745C598.921 201.464 581.442 208.823 558.342 208.823C544.441 208.823 532.584 205.961 522.771 200.237C513.163 194.309 505.702 185.825 500.387 174.786V265.245H475.855V50.5959H500.387V80.0335C505.702 68.9944 513.163 60.5106 522.771 54.5822C532.584 48.6538 544.441 45.6896 558.342 45.6896ZM553.436 188.891C570.812 188.891 583.487 183.883 591.459 173.866C599.636 163.644 603.725 148.108 603.725 127.256C603.725 106.405 599.636 90.9704 591.459 80.9534C583.487 70.732 570.812 65.6213 553.436 65.6213C536.673 65.6213 523.589 70.6298 514.185 80.6468C504.986 90.6637 500.387 106.2 500.387 127.256C500.387 148.312 504.986 163.849 514.185 173.866C523.589 183.883 536.673 188.891 553.436 188.891ZM653.758 -2.5043e-05H825.477V20.545H752.496V204.223H727.352V20.545H653.758V-2.5043e-05ZM916.89 48.4494V72.6741H910.45C889.394 72.0608 874.88 78.2958 866.907 91.3792C859.139 104.463 855.255 123.168 855.255 147.495V203.917H830.724V50.5959H855.255V91.9925C865.067 62.9637 883.773 48.4494 911.37 48.4494H916.89ZM1062.83 50.5959H1087.05L1014.99 229.368C1011.31 238.772 1007.94 245.824 1004.87 250.526C1002.01 255.433 998.026 259.112 992.916 261.565C987.805 264.019 980.752 265.245 971.757 265.245H942.626V245.313H985.249L1002.11 203.917H993.529L932.814 50.5959H958.572L1005.49 168.653L1010.7 183.372L1015.3 168.653L1062.83 50.5959ZM1126.02 203.917H1098.12L1159.14 126.643L1099.65 50.5959H1129.09L1174.17 111.004L1219.24 50.5959H1247.45L1188.58 126.03L1250.52 203.917H1221.08L1173.55 141.362L1126.02 203.917Z" fill="url(#paint0_linear_13_987)"/>
<defs>
<linearGradient id="paint0_linear_13_987" x1="619.148" y1="-0.083252" x2="619.148" y2="251.917" gradientUnits="userSpaceOnUse">
<stop stop-opacity="0.2"/>
<stop offset="1" stop-opacity="0"/>
</linearGradient>
</defs>
</svg>
