<svg width="38" height="38" viewBox="0 0 38 38" fill="none" xmlns="http://www.w3.org/2000/svg">
<path d="M1.67485 20.372C0.77543 19.3256 0.774936 17.7812 1.67405 16.7345C2.31765 15.9852 2.96237 15.2492 3.60985 14.5247C3.41408 13.5857 3.22605 12.6378 3.04517 11.6786C2.78948 10.3226 3.56122 8.98491 4.86325 8.52796C5.79522 8.20088 6.72157 7.88582 7.64451 7.58219C7.94445 6.67108 8.25562 5.75611 8.57859 4.83491C9.03514 3.53277 10.3723 2.76017 11.7284 3.01545C12.6826 3.19511 13.6263 3.38205 14.5616 3.57694C15.2742 2.94051 15.9979 2.30674 16.7345 1.67405C17.7812 0.774936 19.3256 0.77543 20.372 1.67485C21.1123 2.31114 21.8393 2.94797 22.5546 3.58702C23.5058 3.38851 24.4655 3.19819 25.4362 3.01545C26.7923 2.76017 28.1294 3.53277 28.586 4.83491C28.9089 5.75611 29.22 6.67108 29.52 7.58219C30.4432 7.88582 31.3694 8.20088 32.3014 8.52796C33.6034 8.98491 34.3752 10.3226 34.1194 11.6786C33.9354 12.6543 33.744 13.6183 33.5446 14.5731C34.1949 15.3005 34.8429 16.0399 35.4903 16.7931C36.3897 17.8396 36.3903 19.3839 35.4912 20.4306C34.8474 21.18 34.2026 21.9162 33.5549 22.6407C33.7509 23.5797 33.9389 24.5276 34.1197 25.4868C34.3754 26.8428 33.6037 28.1806 32.3017 28.6374C31.3694 28.9646 30.4429 29.2797 29.5197 29.5834C29.2197 30.4943 28.9086 31.4094 28.5857 32.3306C28.1292 33.6326 26.792 34.4052 25.436 34.15C24.4819 33.9703 23.5383 33.7834 22.6032 33.5886C21.8907 34.2249 21.1671 34.8586 20.4306 35.4912C19.3839 36.3903 17.8396 36.3897 16.7931 35.4903C16.0529 34.854 15.3259 34.2172 14.6107 33.5783C13.6594 33.7769 12.6995 33.9672 11.7286 34.15C10.3726 34.4052 9.03539 33.6326 8.57882 32.3306C8.25588 31.4094 7.94474 30.4943 7.64479 29.5834C6.72168 29.2797 5.79517 28.9646 4.86299 28.6374C3.56097 28.1806 2.78922 26.8428 3.04494 25.4868C3.22897 24.5108 3.42039 23.5465 3.61988 22.5914C2.96979 21.8642 2.32205 21.125 1.67485 20.372Z" stroke="black" stroke-width="2" stroke-linejoin="round"/>
<path d="M11.7812 20.6901L16.3323 25.3834C18.4738 19.2316 20.2573 16.5322 24.2966 12.868" stroke="black" stroke-width="2" stroke-linecap="round" stroke-linejoin="round"/>
</svg>
