<svg width="40" height="40" viewBox="0 0 40 40" fill="none" xmlns="http://www.w3.org/2000/svg">
<path d="M29.5 10.5V18.1836C29.5 18.6429 29.5 18.8725 29.3497 18.9653C29.1996 19.0581 28.9942 18.9555 28.5834 18.7501L26.6166 17.7666C26.4775 17.6972 26.408 17.6624 26.3333 17.6624C26.2586 17.6624 26.1891 17.6972 26.05 17.7666L24.0832 18.7501C23.6723 18.9555 23.467 19.0581 23.3169 18.9653C23.1666 18.8725 23.1666 18.6429 23.1666 18.1836V10.5" stroke="black" stroke-width="2"/>
<path d="M4.16663 12.0037C4.16663 10.6064 4.16663 9.90771 4.27643 9.32574C4.75981 6.76378 6.76378 4.75981 9.32574 4.27643C9.90771 4.16663 10.6064 4.16663 12.0037 4.16663C12.616 4.16663 12.9221 4.16663 13.2163 4.19414C14.4847 4.31275 15.6878 4.81111 16.6685 5.6241C16.896 5.81267 17.1124 6.02915 17.5453 6.46206L18.4166 7.33329C19.7083 8.62494 20.3542 9.27077 21.1275 9.70106C21.5523 9.93742 22.003 10.1241 22.4706 10.2574C23.3216 10.5 24.2349 10.5 26.0616 10.5H26.6533C30.8213 10.5 32.9051 10.5 34.2598 11.7183C34.3844 11.8303 34.503 11.9489 34.6149 12.0735C35.8333 13.4281 35.8333 15.5121 35.8333 19.68V23.1666C35.8333 29.1377 35.8333 32.1234 33.9783 33.9783C32.1234 35.8333 29.1377 35.8333 23.1666 35.8333H16.8333C10.8622 35.8333 7.87661 35.8333 6.02161 33.9783C4.16663 32.1234 4.16663 29.1377 4.16663 23.1666V12.0037Z" stroke="black" stroke-width="2"/>
</svg>
