<svg width="40" height="40" viewBox="0 0 40 40" fill="none" xmlns="http://www.w3.org/2000/svg">
<path d="M35.8334 20C35.8334 22.0792 35.4237 24.1382 34.6281 26.0591C33.8323 27.9801 32.6662 29.7256 31.1959 31.1959C29.7256 32.6662 27.9802 33.8323 26.0591 34.6281C24.1382 35.4237 22.0793 35.8333 20 35.8333C17.9208 35.8333 15.8619 35.4237 13.9409 34.6281C12.0199 33.8323 10.2744 32.6662 8.80416 31.1959C7.33391 29.7256 6.16762 27.9801 5.37192 26.0591C4.57623 24.1382 4.16669 22.0792 4.16669 20C4.16669 17.9207 4.57623 15.8618 5.37194 13.9408C6.16762 12.0198 7.33391 10.2744 8.80416 8.8041C10.2744 7.33385 12.0199 6.16756 13.9409 5.37186C15.8619 4.57617 17.9208 4.16663 20 4.16663C22.0793 4.16663 24.1382 4.57617 26.0591 5.37188C27.9802 6.16756 29.7256 7.33385 31.1959 8.8041C32.6662 10.2744 33.8323 12.0198 34.6281 13.9408C35.4237 15.8618 35.8334 17.9207 35.8334 20Z" stroke="black" stroke-width="2"/>
<path d="M26.3334 20C26.3334 22.0792 26.1695 24.1382 25.8512 26.0591C25.533 27.9801 25.0665 29.7256 24.4783 31.1959C23.8903 32.6662 23.192 33.8323 22.4236 34.6281C21.6552 35.4237 20.8317 35.8333 20 35.8333C19.1683 35.8333 18.3448 35.4237 17.5764 34.6281C16.808 33.8323 16.1098 32.6662 15.5217 31.1959C14.9336 29.7256 14.4671 27.9801 14.1488 26.0591C13.8305 24.1382 13.6667 22.0792 13.6667 20C13.6667 17.9207 13.8305 15.8618 14.1488 13.9408C14.4671 12.0198 14.9336 10.2744 15.5217 8.8041C16.1098 7.33385 16.808 6.16756 17.5764 5.37186C18.3448 4.57617 19.1683 4.16663 20 4.16663C20.8317 4.16663 21.6552 4.57617 22.4236 5.37188C23.192 6.16756 23.8903 7.33385 24.4783 8.8041C25.0665 10.2744 25.533 12.0198 25.8512 13.9408C26.1695 15.8618 26.3334 17.9207 26.3334 20Z" stroke="black" stroke-width="2"/>
<path d="M4.16669 20H35.8334" stroke="black" stroke-width="2" stroke-linecap="round"/>
</svg>
