<svg width="40" height="40" viewBox="0 0 40 40" fill="none" xmlns="http://www.w3.org/2000/svg">
<path d="M10.5515 19.3107C10.5515 19.9344 10.6744 20.5521 10.9131 21.1284C11.1518 21.7047 11.5017 22.2283 11.9428 22.6694C12.3838 23.1105 12.9075 23.4604 13.4838 23.6991C14.0601 23.9378 14.6777 24.0607 15.3015 24.0607C15.9253 24.0607 16.543 23.9378 17.1193 23.6991C17.6956 23.4604 18.2192 23.1105 18.6603 22.6694C19.1013 22.2283 19.4512 21.7047 19.6899 21.1284C19.9287 20.5521 20.0515 19.9344 20.0515 19.3107C20.0515 18.0509 19.5511 16.8427 18.6603 15.9519C17.7695 15.0611 16.5613 14.5607 15.3015 14.5607C14.0417 14.5607 12.8336 15.0611 11.9428 15.9519C11.052 16.8427 10.5515 18.0509 10.5515 19.3107Z" stroke="black" stroke-width="2" stroke-linecap="round" stroke-linejoin="round"/>
<path d="M27.1346 24.7239C24.5622 31.6223 17.9999 37.6323 15.3013 37.6323C11.9084 37.6323 2.40845 28.1323 2.40845 19.3108C2.40845 12.1903 8.18078 6.41797 15.3013 6.41797C15.7035 6.41797 16.1015 6.4364 16.4943 6.47244" stroke="black" stroke-width="2" stroke-linecap="round" stroke-linejoin="round"/>
<path d="M21.8887 11.2307C20.9829 11.0732 20.9829 9.77292 21.8887 9.61536C25.17 9.04449 27.7799 6.54517 28.4922 3.29158L28.5467 3.04219C28.7427 2.14702 30.0173 2.14145 30.2209 3.03487L30.2874 3.32551C31.026 6.56374 33.6366 9.04197 36.9086 9.61123C37.819 9.76961 37.819 11.0765 36.9086 11.2349C33.6366 11.8041 31.026 14.2824 30.2874 17.5206L30.2209 17.8112C30.0173 18.7047 28.7427 18.6991 28.5467 17.8039L28.4922 17.5545C27.7799 14.3009 25.17 11.8016 21.8887 11.2307Z" stroke="black" stroke-width="2" stroke-linecap="round" stroke-linejoin="round"/>
</svg>
