<svg width="37" height="37" viewBox="0 0 37 37" fill="none" xmlns="http://www.w3.org/2000/svg">
<path d="M22.9858 5.88571C22.9858 6.52732 23.1122 7.16263 23.3577 7.7554C23.6033 8.34816 23.9632 8.88676 24.4168 9.34044C24.8705 9.79412 25.4091 10.154 26.0019 10.3995C26.5946 10.6451 27.23 10.7714 27.8716 10.7714C28.5132 10.7714 29.1485 10.6451 29.7412 10.3995C30.334 10.154 30.8726 9.79412 31.3263 9.34044C31.78 8.88676 32.1398 8.34816 32.3854 7.7554C32.6309 7.16263 32.7573 6.52732 32.7573 5.88571C32.7573 4.58994 32.2425 3.34724 31.3263 2.43099C30.41 1.51474 29.1673 1 27.8716 1C26.5758 1 25.3331 1.51474 24.4168 2.43099C23.5006 3.34724 22.9858 4.58994 22.9858 5.88571Z" stroke="black" stroke-width="2" stroke-linecap="round" stroke-linejoin="round"/>
<path d="M35.2001 22.9864V20.5435C35.2001 16.4959 31.9191 13.2147 27.8716 13.2147C25.1115 13.2147 22.7078 14.7404 21.4579 16.9945" stroke="black" stroke-width="2" stroke-linecap="round" stroke-linejoin="round"/>
<path d="M3.44299 5.88571C3.44299 7.18149 3.95774 8.42419 4.87399 9.34044C5.79023 10.2567 7.03294 10.7714 8.32871 10.7714C9.62448 10.7714 10.8672 10.2567 11.7834 9.34044C12.6997 8.42419 13.2144 7.18149 13.2144 5.88571C13.2144 4.58994 12.6997 3.34724 11.7834 2.43099C10.8672 1.51474 9.62448 1 8.32871 1C7.03294 1 5.79023 1.51474 4.87399 2.43099C3.95774 3.34724 3.44299 4.58994 3.44299 5.88571Z" stroke="black" stroke-width="2" stroke-linecap="round" stroke-linejoin="round"/>
<path d="M1 22.9864V20.5435C1 16.4959 4.28119 13.2147 8.32873 13.2147C11.0888 13.2147 13.4924 14.7404 14.7423 16.9945" stroke="black" stroke-width="2" stroke-linecap="round" stroke-linejoin="round"/>
<path d="M13.2171 20.5374C13.2171 21.8332 13.7318 23.0759 14.6481 23.9922C15.5643 24.9084 16.807 25.4232 18.1028 25.4232C19.3986 25.4232 20.6413 24.9084 21.5575 23.9922C22.4738 23.0759 22.9885 21.8332 22.9885 20.5374C22.9885 19.2417 22.4738 17.999 21.5575 17.0827C20.6413 16.1665 19.3986 15.6517 18.1028 15.6517C16.807 15.6517 15.5643 16.1665 14.6481 17.0827C13.7318 17.999 13.2171 19.2417 13.2171 20.5374Z" stroke="black" stroke-width="2" stroke-linecap="round" stroke-linejoin="round"/>
<path d="M25.4321 35.1943C25.4321 31.1468 22.1509 27.8657 18.1034 27.8657C14.0558 27.8657 10.7747 31.1468 10.7747 35.1943" stroke="black" stroke-width="2" stroke-linecap="round" stroke-linejoin="round"/>
</svg>
